<svg width="24" height="24" viewBox="0 0 24 24" fill="none" xmlns="http://www.w3.org/2000/svg">
<path fill-rule="evenodd" clip-rule="evenodd" d="M0.75 12C0.948912 12 1.13968 12.079 1.28033 12.2197C1.42098 12.3603 1.5 12.5511 1.5 12.75V18C1.5 18.3978 1.65804 18.7794 1.93934 19.0607C2.22064 19.342 2.60218 19.5 3 19.5H21C21.3978 19.5 21.7794 19.342 22.0607 19.0607C22.342 18.7794 22.5 18.3978 22.5 18V12.75C22.5 12.5511 22.579 12.3603 22.7197 12.2197C22.8603 12.079 23.0511 12 23.25 12C23.4489 12 23.6397 12.079 23.7803 12.2197C23.921 12.3603 24 12.5511 24 12.75V18C24 18.7956 23.6839 19.5587 23.1213 20.1213C22.5587 20.6839 21.7956 21 21 21H3C2.20435 21 1.44129 20.6839 0.87868 20.1213C0.316071 19.5587 0 18.7956 0 18V12.75C0 12.5511 0.0790176 12.3603 0.21967 12.2197C0.360322 12.079 0.551088 12 0.75 12Z" fill="#28A745"/>
<path fill-rule="evenodd" clip-rule="evenodd" d="M7.50011 11.25C7.64075 11.1094 7.83148 11.0304 8.03036 11.0304C8.22923 11.0304 8.41996 11.1094 8.56061 11.25L12.0001 14.6895L15.4396 11.25C15.5088 11.1783 15.5916 11.1212 15.6831 11.0819C15.7746 11.0426 15.873 11.0219 15.9726 11.021C16.0721 11.0202 16.1709 11.0391 16.2631 11.0768C16.3552 11.1146 16.439 11.1702 16.5094 11.2407C16.5798 11.3111 16.6355 11.3948 16.6732 11.487C16.7109 11.5792 16.7299 11.6779 16.729 11.7775C16.7282 11.8771 16.7075 11.9755 16.6682 12.067C16.6289 12.1585 16.5717 12.2413 16.5001 12.3105L12.5311 16.281C12.4614 16.3508 12.3787 16.4062 12.2876 16.444C12.1964 16.4818 12.0988 16.5013 12.0001 16.5013C11.9015 16.5013 11.8038 16.4818 11.7127 16.444C11.6215 16.4062 11.5388 16.3508 11.4691 16.281L7.50011 12.3105C7.3595 12.1698 7.28052 11.9791 7.28052 11.7802C7.28052 11.5813 7.3595 11.3906 7.50011 11.25Z" fill="#28A745"/>
<path fill-rule="evenodd" clip-rule="evenodd" d="M12 1.5C12.1989 1.5 12.3897 1.57902 12.5303 1.71967C12.671 1.86032 12.75 2.05109 12.75 2.25V14.25C12.75 14.4489 12.671 14.6397 12.5303 14.7803C12.3897 14.921 12.1989 15 12 15C11.8011 15 11.6103 14.921 11.4697 14.7803C11.329 14.6397 11.25 14.4489 11.25 14.25V2.25C11.25 2.05109 11.329 1.86032 11.4697 1.71967C11.6103 1.57902 11.8011 1.5 12 1.5Z" fill="#28A745"/>
</svg>
