<svg width="24" height="24" viewBox="0 0 24 24" fill="none" xmlns="http://www.w3.org/2000/svg">
<path fill-rule="evenodd" clip-rule="evenodd" d="M17.0306 10.2189C17.1005 10.2885 17.1559 10.3713 17.1937 10.4624C17.2315 10.5535 17.251 10.6512 17.251 10.7499C17.251 10.8485 17.2315 10.9462 17.1937 11.0373C17.1559 11.1284 17.1005 11.2112 17.0306 11.2809L12.5306 15.7809C12.461 15.8507 12.3782 15.9061 12.2871 15.9439C12.196 15.9818 12.0983 16.0012 11.9996 16.0012C11.901 16.0012 11.8033 15.9818 11.7122 15.9439C11.6211 15.9061 11.5383 15.8507 11.4686 15.7809L6.96864 11.2809C6.82781 11.14 6.74869 10.949 6.74869 10.7499C6.74869 10.5507 6.82781 10.3597 6.96864 10.2189C7.10947 10.078 7.30047 9.99893 7.49964 9.99893C7.6988 9.99893 7.88981 10.078 8.03064 10.2189L11.9996 14.1894L15.9686 10.2189C16.0383 10.149 16.1211 10.0936 16.2122 10.0558C16.3033 10.018 16.401 9.99854 16.4996 9.99854C16.5983 9.99854 16.696 10.018 16.7871 10.0558C16.8782 10.0936 16.961 10.149 17.0306 10.2189Z" fill="black"/>
<path fill-rule="evenodd" clip-rule="evenodd" d="M12 15C11.8011 15 11.6103 14.921 11.4697 14.7803C11.329 14.6397 11.25 14.4489 11.25 14.25L11.25 4.5C11.25 4.30109 11.329 4.11032 11.4697 3.96967C11.6103 3.82902 11.8011 3.75 12 3.75C12.1989 3.75 12.3897 3.82902 12.5303 3.96967C12.671 4.11032 12.75 4.30109 12.75 4.5L12.75 14.25C12.75 14.4489 12.671 14.6397 12.5303 14.7803C12.3897 14.921 12.1989 15 12 15ZM21 18.75C21 18.9489 20.921 19.1397 20.7803 19.2803C20.6397 19.421 20.4489 19.5 20.25 19.5L3.75 19.5C3.55109 19.5 3.36032 19.421 3.21967 19.2803C3.07902 19.1397 3 18.9489 3 18.75C3 18.5511 3.07902 18.3603 3.21967 18.2197C3.36032 18.079 3.55109 18 3.75 18L20.25 18C20.4489 18 20.6397 18.079 20.7803 18.2197C20.921 18.3603 21 18.5511 21 18.75Z" fill="black"/>
</svg>
