<svg width="24" height="24" viewBox="0 0 24 24" fill="none" xmlns="http://www.w3.org/2000/svg">
<path fill-rule="evenodd" clip-rule="evenodd" d="M17.0306 13.7809C17.1005 13.7112 17.1559 13.6284 17.1937 13.5373C17.2315 13.4462 17.251 13.3485 17.251 13.2499C17.251 13.1512 17.2315 13.0535 17.1937 12.9624C17.1559 12.8713 17.1005 12.7885 17.0306 12.7189L12.5306 8.21888C12.461 8.14903 12.3782 8.09362 12.2871 8.05581C12.196 8.018 12.0983 7.99854 11.9996 7.99854C11.901 7.99854 11.8033 8.018 11.7122 8.05581C11.6211 8.09362 11.5383 8.14903 11.4686 8.21888L6.96864 12.7189C6.82781 12.8597 6.74869 13.0507 6.74869 13.2499C6.74869 13.449 6.82781 13.64 6.96864 13.7809C7.10947 13.9217 7.30047 14.0008 7.49964 14.0008C7.6988 14.0008 7.88981 13.9217 8.03064 13.7809L11.9996 9.81038L15.9686 13.7809C16.0383 13.8507 16.1211 13.9061 16.2122 13.9439C16.3033 13.9818 16.401 14.0012 16.4996 14.0012C16.5983 14.0012 16.696 13.9818 16.7871 13.9439C16.8782 13.9061 16.961 13.8507 17.0306 13.7809Z" fill="black"/>
<path fill-rule="evenodd" clip-rule="evenodd" d="M12 9C11.8011 9 11.6103 9.07902 11.4697 9.21967C11.329 9.36032 11.25 9.55109 11.25 9.75V19.5C11.25 19.6989 11.329 19.8897 11.4697 20.0303C11.6103 20.171 11.8011 20.25 12 20.25C12.1989 20.25 12.3897 20.171 12.5303 20.0303C12.671 19.8897 12.75 19.6989 12.75 19.5V9.75C12.75 9.55109 12.671 9.36032 12.5303 9.21967C12.3897 9.07902 12.1989 9 12 9ZM21 5.25C21 5.44891 20.921 5.63968 20.7803 5.78033C20.6397 5.92098 20.4489 6 20.25 6L3.75 6C3.55109 6 3.36032 5.92098 3.21967 5.78033C3.07902 5.63968 3 5.44891 3 5.25C3 5.05109 3.07902 4.86032 3.21967 4.71967C3.36032 4.57902 3.55109 4.5 3.75 4.5L20.25 4.5C20.4489 4.5 20.6397 4.57902 20.7803 4.71967C20.921 4.86032 21 5.05109 21 5.25Z" fill="black"/>
</svg>
