<svg width="24" height="24" viewBox="0 0 24 24" fill="none" xmlns="http://www.w3.org/2000/svg">
<path fill-rule="evenodd" clip-rule="evenodd" d="M3 12C3 11.8011 3.07902 11.6103 3.21967 11.4697C3.36032 11.329 3.55109 11.25 3.75 11.25H20.25C20.4489 11.25 20.6397 11.329 20.7803 11.4697C20.921 11.6103 21 11.8011 21 12C21 12.1989 20.921 12.3897 20.7803 12.5303C20.6397 12.671 20.4489 12.75 20.25 12.75H3.75C3.55109 12.75 3.36032 12.671 3.21967 12.5303C3.07902 12.3897 3 12.1989 3 12ZM12 1.5C12.1989 1.5 12.3897 1.57902 12.5303 1.71967C12.671 1.86032 12.75 2.05109 12.75 2.25V9C12.75 9.19891 12.671 9.38968 12.5303 9.53033C12.3897 9.67098 12.1989 9.75 12 9.75C11.8011 9.75 11.6103 9.67098 11.4697 9.53033C11.329 9.38968 11.25 9.19891 11.25 9V2.25C11.25 2.05109 11.329 1.86032 11.4697 1.71967C11.6103 1.57902 11.8011 1.5 12 1.5Z" fill="black"/>
<path fill-rule="evenodd" clip-rule="evenodd" d="M15.531 5.469C15.6008 5.53867 15.6562 5.62143 15.694 5.71255C15.7318 5.80367 15.7513 5.90135 15.7513 6C15.7513 6.09865 15.7318 6.19633 15.694 6.28745C15.6562 6.37857 15.6008 6.46133 15.531 6.531L12.531 9.531C12.4613 9.60084 12.3785 9.65626 12.2874 9.69407C12.1963 9.73188 12.0986 9.75134 12 9.75134C11.9013 9.75134 11.8036 9.73188 11.7125 9.69407C11.6214 9.65626 11.5386 9.60084 11.469 9.531L8.46897 6.531C8.32814 6.39017 8.24902 6.19916 8.24902 6C8.24902 5.90138 8.26845 5.80373 8.30619 5.71262C8.34392 5.62151 8.39924 5.53873 8.46897 5.469C8.5387 5.39927 8.62149 5.34395 8.7126 5.30621C8.8037 5.26847 8.90136 5.24905 8.99997 5.24905C9.19913 5.24905 9.39014 5.32817 9.53097 5.469L12 7.9395L14.469 5.469C14.5386 5.39915 14.6214 5.34374 14.7125 5.30593C14.8036 5.26812 14.9013 5.24866 15 5.24866C15.0986 5.24866 15.1963 5.26812 15.2874 5.30593C15.3785 5.34374 15.4613 5.39915 15.531 5.469ZM12 22.5C12.1989 22.5 12.3896 22.421 12.5303 22.2803C12.671 22.1397 12.75 21.9489 12.75 21.75V15C12.75 14.8011 12.671 14.6103 12.5303 14.4697C12.3896 14.329 12.1989 14.25 12 14.25C11.8011 14.25 11.6103 14.329 11.4696 14.4697C11.329 14.6103 11.25 14.8011 11.25 15V21.75C11.25 21.9489 11.329 22.1397 11.4696 22.2803C11.6103 22.421 11.8011 22.5 12 22.5Z" fill="black"/>
<path fill-rule="evenodd" clip-rule="evenodd" d="M15.531 18.531C15.6008 18.4613 15.6562 18.3786 15.694 18.2874C15.7318 18.1963 15.7513 18.0986 15.7513 18C15.7513 17.9013 15.7318 17.8037 15.694 17.7125C15.6562 17.6214 15.6008 17.5387 15.531 17.469L12.531 14.469C12.4613 14.3992 12.3785 14.3437 12.2874 14.3059C12.1963 14.2681 12.0986 14.2487 12 14.2487C11.9013 14.2487 11.8036 14.2681 11.7125 14.3059C11.6214 14.3437 11.5386 14.3992 11.469 14.469L8.46897 17.469C8.39924 17.5387 8.34392 17.6215 8.30619 17.7126C8.26845 17.8037 8.24902 17.9014 8.24902 18C8.24902 18.0986 8.26845 18.1963 8.30619 18.2874C8.34392 18.3785 8.39924 18.4613 8.46897 18.531C8.6098 18.6718 8.80081 18.7509 8.99997 18.7509C9.09859 18.7509 9.19624 18.7315 9.28735 18.6938C9.37846 18.656 9.46124 18.6007 9.53097 18.531L12 16.0605L14.469 18.531C14.5386 18.6008 14.6214 18.6563 14.7125 18.6941C14.8036 18.7319 14.9013 18.7513 15 18.7513C15.0986 18.7513 15.1963 18.7319 15.2874 18.6941C15.3785 18.6563 15.4613 18.6008 15.531 18.531Z" fill="black"/>
</svg>
